<svg width="22" height="19" viewBox="0 0 22 19" fill="none" xmlns="http://www.w3.org/2000/svg">
<path fill-rule="evenodd" clip-rule="evenodd" d="M6.3249 4.63064L1.69878 2.92166C1.24467 2.7539 0.740555 2.98603 0.5728 3.44014C0.405044 3.89425 0.637176 4.39836 1.09128 4.56612L7.68131 7.00061H0.876543C0.39244 7.00061 0 7.39305 0 7.87715V8.75369C0 12.6265 3.13953 15.766 7.01235 15.766H14.0247C17.8975 15.766 21.037 12.6265 21.037 8.75369V7.87715C21.037 7.39305 20.6446 7.00061 20.1605 7.00061H12.5887C12.5128 6.93634 12.4246 6.88399 12.3259 6.84753L10.1776 6.05391L4.49486 0.262624C4.1558 -0.0829102 3.60083 -0.088159 3.2553 0.2509C2.90976 0.589958 2.90451 1.14493 3.24357 1.49046L6.3249 4.63064ZM14.0247 14.013C16.9293 14.013 19.284 11.6583 19.284 8.75369H1.75309C1.75309 11.6583 4.10774 14.013 7.01235 14.013H14.0247ZM14.0247 16.6426C14.5088 16.6426 14.9012 17.035 14.9012 17.5191C14.9012 18.0032 14.5088 18.3957 14.0247 18.3957H7.01235C6.52824 18.3957 6.1358 18.0032 6.1358 17.5191C6.1358 17.035 6.52824 16.6426 7.01235 16.6426H14.0247Z" fill="#EB5757"/>
</svg>
