<svg width="19" height="22" viewBox="0 0 19 22" fill="none" xmlns="http://www.w3.org/2000/svg">
<path fill-rule="evenodd" clip-rule="evenodd" d="M17.5309 1.75309C18.015 1.75309 18.4074 1.36064 18.4074 0.876543C18.4074 0.392442 18.015 0 17.5309 0H12.2716C12.0159 0 11.7858 0.10949 11.6255 0.284146C11.4217 0.404966 11.2671 0.607582 11.2145 0.857765L10.4724 4.38272H0.876551C0.608769 4.38272 0.355676 4.50512 0.189417 4.71504C0.0231593 4.92496 -0.0380237 5.19936 0.0233089 5.46002L3.52948 20.3613C3.62265 20.7572 3.97596 21.037 4.38272 21.037H11.3951C11.8018 21.037 12.1551 20.7572 12.2483 20.3613L15.7545 5.46002C15.8158 5.19936 15.7546 4.92496 15.5884 4.71504C15.4221 4.50512 15.169 4.38272 14.9012 4.38272H12.2639L12.8175 1.75309H17.5309ZM10.1033 6.1358H1.98328L2.60211 8.76586C2.61125 8.76557 2.62042 8.76543 2.62963 8.76543H9.54971L10.1033 6.1358ZM3.0145 10.5185L5.07696 19.284H10.7008L12.7633 10.5185H10.9722L9.78494 16.1578C9.68521 16.6315 9.22034 16.9347 8.74662 16.8349C8.27291 16.7352 7.96973 16.2703 8.06946 15.7966L9.18064 10.5185H3.0145ZM13.1757 8.76586C13.1665 8.76557 13.1574 8.76543 13.1481 8.76543H11.3412L11.8948 6.1358H13.7945L13.1757 8.76586Z" fill="#EB5757"/>
</svg>
