<svg width="16" height="19" viewBox="0 0 16 19" fill="none" xmlns="http://www.w3.org/2000/svg">
<path fill-rule="evenodd" clip-rule="evenodd" d="M7.62 0.360053C7.91823 0.757698 7.83765 1.32182 7.44 1.62005L4.4 3.90005L7.44 6.18005C7.83765 6.47829 7.91823 7.04241 7.62 7.44005C7.32177 7.8377 6.75765 7.91829 6.36 7.62005L2.36 4.62005C2.13337 4.45008 2 4.18334 2 3.90005C2 3.61677 2.13337 3.35002 2.36 3.18005L6.36 0.180053C6.75765 -0.118181 7.32177 -0.0375921 7.62 0.360053ZM11.289 5.8281C10.1156 5.04404 8.70657 4.69111 7.30209 4.82944C6.80743 4.87816 6.36693 4.51665 6.31821 4.02199C6.26949 3.52732 6.631 3.08682 7.12566 3.03811C8.94457 2.85896 10.7693 3.31603 12.289 4.33145C13.8087 5.34687 14.9293 6.8578 15.4598 8.60681C15.9904 10.3558 15.8981 12.2347 15.1986 13.9232C14.4992 15.6118 13.2359 17.0056 11.624 17.8672C10.0121 18.7288 8.15137 19.0048 6.35879 18.6482C4.5662 18.2917 2.9527 17.3246 1.79322 15.9118C0.633733 14.4989 0 12.7278 0 10.9001C0 10.403 0.402944 10.0001 0.9 10.0001C1.39706 10.0001 1.8 10.403 1.8 10.9001C1.8 12.3113 2.28934 13.6789 3.18464 14.7698C4.07993 15.8608 5.3258 16.6075 6.70995 16.8828C8.0941 17.1582 9.53089 16.945 10.7755 16.2798C12.0201 15.6145 12.9956 14.5383 13.5357 13.2344C14.0757 11.9306 14.147 10.4798 13.7373 9.12932C13.3277 7.77882 12.4624 6.61215 11.289 5.8281ZM4 9.90005C4 9.403 4.40294 9.00005 4.9 9.00005H8.9C9.39706 9.00005 9.8 9.403 9.8 9.90005V13.9001C9.8 14.3971 9.39706 14.8001 8.9 14.8001C8.40294 14.8001 8 14.3971 8 13.9001V10.8001H4.9C4.40294 10.8001 4 10.3971 4 9.90005Z" fill="#EB5757"/>
</svg>
