<svg width="15" height="15" viewBox="0 0 15 15" fill="none" xmlns="http://www.w3.org/2000/svg">
<path fill-rule="evenodd" clip-rule="evenodd" d="M1.75309 3.50617C2.72129 3.50617 3.50617 2.72129 3.50617 1.75309C3.50617 0.784883 2.72129 0 1.75309 0C0.784883 0 0 0.784883 0 1.75309C0 2.72129 0.784883 3.50617 1.75309 3.50617ZM1.75309 14.0247C2.72129 14.0247 3.50617 13.2398 3.50617 12.2716C3.50617 11.3034 2.72129 10.5185 1.75309 10.5185C0.784883 10.5185 0 11.3034 0 12.2716C0 13.2398 0.784883 14.0247 1.75309 14.0247ZM14.0247 1.75309C14.0247 2.72129 13.2398 3.50617 12.2716 3.50617C11.3034 3.50617 10.5185 2.72129 10.5185 1.75309C10.5185 0.784883 11.3034 0 12.2716 0C13.2398 0 14.0247 0.784883 14.0247 1.75309ZM12.2716 14.0247C13.2398 14.0247 14.0247 13.2398 14.0247 12.2716C14.0247 11.3034 13.2398 10.5185 12.2716 10.5185C11.3034 10.5185 10.5185 11.3034 10.5185 12.2716C10.5185 13.2398 11.3034 14.0247 12.2716 14.0247Z" fill="#EB5757"/>
</svg>
