<svg id="Layer_1" data-name="Layer 1" xmlns="http://www.w3.org/2000/svg" viewBox="0 0 369.37 117.59"><defs><style>.cls-1{fill: #080E0B;}</style></defs><path class="cls-1" d="M299.54,356.9a14,14,0,0,1-7,3.54,7.32,7.32,0,0,1,3.76,2.22,5.41,5.41,0,0,1,1.28,3.54,8.15,8.15,0,0,1-2,5.48,12.59,12.59,0,0,1-5.78,3.58,29.33,29.33,0,0,1-9.16,1.26c-1.34,0-2.4,0-3.2-.12a1.93,1.93,0,0,1-1,1.68,4.53,4.53,0,0,1-2.36.56,2.49,2.49,0,0,1-2-.64,2.55,2.55,0,0,1-.46-1.88,112.83,112.83,0,0,1,1.4-11.74,114.62,114.62,0,0,1,2.64-11.86,2.08,2.08,0,0,1,1.12-1.4,5.24,5.24,0,0,1,2.2-.4c1.62,0,2.44.46,2.44,1.36a4.08,4.08,0,0,1-.24,1.28,68.69,68.69,0,0,0-2.08,8.46A98.84,98.84,0,0,0,277.7,372c1.28.11,2.32.16,3.12.16q5.6,0,8.22-1.62a4.79,4.79,0,0,0,2.62-4.14,3.66,3.66,0,0,0-1.5-3c-1-.8-2.68-1.24-5-1.32a1.51,1.51,0,0,1-1.12-.4,1.68,1.68,0,0,1-.32-1.16,3.34,3.34,0,0,1,.48-1.88,2,2,0,0,1,1.76-.76,17.78,17.78,0,0,0,5.14-.84,8.61,8.61,0,0,0,3.62-2.14,4.51,4.51,0,0,0,1.32-3.22,4.1,4.1,0,0,0-2.28-3.66c-1.52-.89-3.86-1.34-7-1.34a31.15,31.15,0,0,0-8.28,1.1,27.35,27.35,0,0,0-6.8,2.78,4.49,4.49,0,0,1-2.16.76,1.28,1.28,0,0,1-1.1-.5,2,2,0,0,1-.38-1.26,3.37,3.37,0,0,1,.42-1.72,5.64,5.64,0,0,1,2-1.64,29.68,29.68,0,0,1,7.88-3,39.58,39.58,0,0,1,9.24-1.08q7.23,0,10.8,2.44a7.49,7.49,0,0,1,3.56,6.44A8.1,8.1,0,0,1,299.54,356.9Z" transform="translate(-142.33 -277.25)"/><path class="cls-1" d="M301.34,376.32a2.35,2.35,0,0,1-.48-1.64,11,11,0,0,1,.08-1.12,86.44,86.44,0,0,1,2.12-13.32,2.9,2.9,0,0,1,1.06-1.74,4.37,4.37,0,0,1,2.38-.5c1.15,0,1.72.47,1.72,1.4a7.2,7.2,0,0,1-.08.76A103.32,103.32,0,0,0,306,374.52a2.34,2.34,0,0,1-.76,1.8,3.48,3.48,0,0,1-2.12.52A2.33,2.33,0,0,1,301.34,376.32Zm3.08-21.74a2.82,2.82,0,0,1-.84-2.18,2.94,2.94,0,0,1,1.1-2.34,4.09,4.09,0,0,1,2.74-.94,3.81,3.81,0,0,1,2.4.72,2.45,2.45,0,0,1,.92,2,3.25,3.25,0,0,1-1,2.54,4,4,0,0,1-2.76.94A3.59,3.59,0,0,1,304.42,354.58Z" transform="translate(-142.33 -277.25)"/><path class="cls-1" d="M340.5,343.46a1.47,1.47,0,0,1,.72,1.22,2.75,2.75,0,0,1-.8,2.06,3.15,3.15,0,0,1-2.28.78c-1.55,0-2.72,0-3.52,0-.05.32-.3,1.76-.72,4.32-.48,2.86-.78,4.6-.88,5.24l-.84,5.24q-.89,5.88-1.4,9.84c.56,0,1.32,0,2.28,0a5.24,5.24,0,0,1,2.88.56,2,2,0,0,1,.76,1.68,2.27,2.27,0,0,1-.82,1.76,3.37,3.37,0,0,1-2.3.72c-.67,0-1.72,0-3.16-.08s-2.22-.08-2.64-.08a38.73,38.73,0,0,0-5.52.44,15.16,15.16,0,0,1-1.88.2,2.29,2.29,0,0,1-1.48-.48,1.68,1.68,0,0,1-.6-1.4,2.52,2.52,0,0,1,1.28-2.24,7.08,7.08,0,0,1,3.6-.84l1.88,0,.12-.88c.64-4.26,1.1-7.28,1.4-9l.88-5.24q.8-4.63,1.44-9.56l-3.36,0a3.12,3.12,0,0,1-2-.46,1.61,1.61,0,0,1-.54-1.3c0-1.81,1.3-2.78,3.92-2.92,1.22-.05,2.72-.08,4.48-.08l7.32,0A3,3,0,0,1,340.5,343.46Z" transform="translate(-142.33 -277.25)"/><path class="cls-1" d="M353,368.3a2.45,2.45,0,0,1,.3,1.26A3.11,3.11,0,0,1,353,371a2.56,2.56,0,0,1-.88.92q-2.81,1.84-7.48,5.08a48.21,48.21,0,0,1-4,13.08c-1.66,3.17-3.76,4.76-6.32,4.76a4.51,4.51,0,0,1-3.34-1.26,4.46,4.46,0,0,1-1.26-3.3,10.88,10.88,0,0,1,2.2-6.06q2.19-3.23,8.28-7.94l.28-2q.56-3.84.88-7.56c.16-1.44.41-3.58.76-6.44a2.41,2.41,0,0,1,.88-1.7,3.66,3.66,0,0,1,2.2-.54,2.43,2.43,0,0,1,1.58.36,1.33,1.33,0,0,1,.38,1,99,99,0,0,1-1.32,10.16l-.4,2.76c2.13-1.6,4.08-3,5.84-4.16a1.82,1.82,0,0,1,.92-.32A.93.93,0,0,1,353,368.3Zm-16,20.3a30.83,30.83,0,0,0,2.32-7.6,22.39,22.39,0,0,0-4.38,4.7,7.17,7.17,0,0,0-1.34,3.7c0,1,.37,1.56,1.12,1.56S336.19,390.17,337,388.6Zm5.44-34a2.82,2.82,0,0,1-.84-2.18,2.94,2.94,0,0,1,1.1-2.34,4.09,4.09,0,0,1,2.74-.94,3.81,3.81,0,0,1,2.4.72,2.45,2.45,0,0,1,.92,2,3.25,3.25,0,0,1-1,2.54,4,4,0,0,1-2.76.94A3.59,3.59,0,0,1,342.46,354.58Z" transform="translate(-142.33 -277.25)"/><path class="cls-1" d="M351.42,375a7.17,7.17,0,0,1-1.48-4.72,13,13,0,0,1,1.48-6.06,12.62,12.62,0,0,1,3.94-4.6,8.89,8.89,0,0,1,5.22-1.74,1.6,1.6,0,0,1,1.18.34,3,3,0,0,1,.5,1.22,9.93,9.93,0,0,1,1.76-.16c1.3,0,2,.47,2,1.4a29.86,29.86,0,0,1-.6,4,39.25,39.25,0,0,0-.92,6.4,1.45,1.45,0,0,0,.3,1,1,1,0,0,0,.78.36,3,3,0,0,0,1.84-1,33.81,33.81,0,0,0,2.92-3.18,1.41,1.41,0,0,1,1.08-.56.92.92,0,0,1,.82.48,2.48,2.48,0,0,1,.3,1.32,3.69,3.69,0,0,1-.76,2.48,20.15,20.15,0,0,1-3.48,3.44,5.89,5.89,0,0,1-3.56,1.4,3.73,3.73,0,0,1-2.42-.9,5.41,5.41,0,0,1-1.66-2.46q-2.08,3.36-5.24,3.36A4.85,4.85,0,0,1,351.42,375Zm7.08-3.28a6.75,6.75,0,0,0,1.16-2.76l1.48-7.36a4.87,4.87,0,0,0-3.1,1.26,8.53,8.53,0,0,0-2.26,3.22,10.87,10.87,0,0,0-.84,4.24,2.85,2.85,0,0,0,.5,1.84,1.69,1.69,0,0,0,1.38.6A2.2,2.2,0,0,0,358.5,371.76Z" transform="translate(-142.33 -277.25)"/><path class="cls-1" d="M385.36,358.66a2.64,2.64,0,0,1,.66,1.94,32.22,32.22,0,0,1-.44,3.92c-.27,1.63-.48,3.17-.64,4.62a44.88,44.88,0,0,0-.24,4.86,3.14,3.14,0,0,1-.62,2.18,2.68,2.68,0,0,1-2,.66,2.41,2.41,0,0,1-1.92-.68,3,3,0,0,1-.6-2,39.19,39.19,0,0,1,.56-5.28,37.49,37.49,0,0,0,.48-4.08c0-.42-.15-.64-.44-.64s-.84.45-1.48,1.34a20.13,20.13,0,0,0-1.92,3.54,29.06,29.06,0,0,0-1.56,4.64,6.39,6.39,0,0,1-1,2.54,2.32,2.32,0,0,1-1.82.66,2,2,0,0,1-1.82-.9,6.43,6.43,0,0,1-.78-2.78,54.31,54.31,0,0,1-.2-5.52,69.39,69.39,0,0,1,1.26-12.84,38.65,38.65,0,0,1,3.72-11.22c1.64-3,3.6-4.54,5.9-4.54a3.53,3.53,0,0,1,3,1.58,6.86,6.86,0,0,1,1.14,4.1,17.54,17.54,0,0,1-2.36,8.38,54.34,54.34,0,0,1-7.68,10.14c-.08,1.39-.12,2.82-.12,4.28a23.15,23.15,0,0,1,2.94-5.54,11.58,11.58,0,0,1,3.2-3.06,5.88,5.88,0,0,1,2.9-.92A2.64,2.64,0,0,1,385.36,358.66ZM378,345.06a34.21,34.21,0,0,0-1.7,5.56,72.23,72.23,0,0,0-1.34,7.62,28.44,28.44,0,0,0,4.1-6.36,14.83,14.83,0,0,0,1.62-6.24,5.54,5.54,0,0,0-.28-2c-.19-.45-.46-.68-.8-.68S378.56,343.69,378,345.06Z" transform="translate(-142.33 -277.25)"/><path class="cls-1" d="M149.9,361.66a3.33,3.33,0,0,1-1.18,2.74,5.12,5.12,0,0,1-3.33,1H144.2v4.27h-1.87V358.21h3.29a5,5,0,0,1,3.21.87A3.15,3.15,0,0,1,149.9,361.66Zm-5.7,2.13h1a3.58,3.58,0,0,0,2.11-.5,1.83,1.83,0,0,0,.67-1.57,1.8,1.8,0,0,0-.6-1.47,3,3,0,0,0-1.87-.48h-1.3Z" transform="translate(-142.33 -277.25)"/><path class="cls-1" d="M152.51,368.65a1.22,1.22,0,0,1,.29-.87,1.13,1.13,0,0,1,.86-.31,1.15,1.15,0,0,1,.87.32,1.2,1.2,0,0,1,.3.86,1.24,1.24,0,0,1-.3.88,1.12,1.12,0,0,1-.87.33,1.14,1.14,0,0,1-.86-.32A1.31,1.31,0,0,1,152.51,368.65Z" transform="translate(-142.33 -277.25)"/><path class="cls-1" d="M169.72,366.53a2.89,2.89,0,0,1-1.1,2.39,4.8,4.8,0,0,1-3,.87,7.29,7.29,0,0,1-3.18-.61v-1.76a9,9,0,0,0,1.66.58,7.16,7.16,0,0,0,1.64.21,2.62,2.62,0,0,0,1.64-.42,1.4,1.4,0,0,0,.53-1.14,1.42,1.42,0,0,0-.49-1.08,7.24,7.24,0,0,0-2-1.06,5.24,5.24,0,0,1-2.2-1.44,3.08,3.08,0,0,1-.64-2,2.76,2.76,0,0,1,1-2.25,4.27,4.27,0,0,1,2.73-.82,8,8,0,0,1,3.26.72l-.59,1.53a7.08,7.08,0,0,0-2.72-.65,2.09,2.09,0,0,0-1.37.4,1.27,1.27,0,0,0-.47,1,1.41,1.41,0,0,0,.19.76,1.94,1.94,0,0,0,.61.6,10,10,0,0,0,1.55.74,8.49,8.49,0,0,1,1.84,1,2.83,2.83,0,0,1,.86,1A3,3,0,0,1,169.72,366.53Z" transform="translate(-142.33 -277.25)"/><path class="cls-1" d="M179.81,369.63l-1.14-3.17h-4.36l-1.12,3.17h-2l4.27-11.47h2l4.28,11.47Zm-1.63-4.78-1.07-3.11c-.08-.21-.19-.54-.32-1s-.24-.77-.29-1a17.59,17.59,0,0,1-.62,2.1l-1,3Z" transform="translate(-142.33 -277.25)"/><path class="cls-1" d="M193.62,369.63h-2.29l-5.61-9.1h-.07l0,.51c.07,1,.11,1.85.11,2.65v5.94h-1.69V358.21h2.26l5.6,9.05H192c0-.12,0-.55-.06-1.31s-.05-1.34-.05-1.76v-6h1.71Z" transform="translate(-142.33 -277.25)"/><path class="cls-1" d="M201.38,369.63h-1.86v-9.82h-3.36v-1.6h8.58v1.6h-3.36Z" transform="translate(-142.33 -277.25)"/><path class="cls-1" d="M209.16,365.07v4.56h-1.87V358.21h3.23a5.25,5.25,0,0,1,3.27.83,3,3,0,0,1,1.06,2.5,3.12,3.12,0,0,1-2.21,3l3.22,5.06h-2.12L211,365.07Zm0-1.55h1.3a3,3,0,0,0,1.89-.48,1.78,1.78,0,0,0,.58-1.44,1.54,1.54,0,0,0-.63-1.39,3.49,3.49,0,0,0-1.91-.42h-1.23Z" transform="translate(-142.33 -277.25)"/><path class="cls-1" d="M218.32,369.63V358.21h1.87v11.42Z" transform="translate(-142.33 -277.25)"/><path class="cls-1" d="M467.47,369.63h-2.29l-5.62-9.1h-.06l0,.51c.07,1,.11,1.85.11,2.65v5.94H458V358.21h2.27l5.6,9.05h.05c0-.12,0-.55-.07-1.31s0-1.34,0-1.76v-6h1.71Z" transform="translate(-142.33 -277.25)"/><path class="cls-1" d="M481.42,363.9a6.25,6.25,0,0,1-1.39,4.34,5.85,5.85,0,0,1-7.92,0,7.5,7.5,0,0,1,0-8.71,5.13,5.13,0,0,1,4-1.51,5,5,0,0,1,3.93,1.54A6.21,6.21,0,0,1,481.42,363.9Zm-8.71,0a5.11,5.11,0,0,0,.85,3.2,3.46,3.46,0,0,0,5,0,5.1,5.1,0,0,0,.85-3.21,5.16,5.16,0,0,0-.84-3.19,3,3,0,0,0-2.5-1.08,3,3,0,0,0-2.54,1.08A5.1,5.1,0,0,0,472.71,363.9Z" transform="translate(-142.33 -277.25)"/><path class="cls-1" d="M484.21,368.65a1.18,1.18,0,0,1,.3-.87,1.1,1.1,0,0,1,.85-.31,1.15,1.15,0,0,1,.87.32,1.2,1.2,0,0,1,.3.86,1.24,1.24,0,0,1-.3.88,1.12,1.12,0,0,1-.87.33,1.1,1.1,0,0,1-.85-.32A1.26,1.26,0,0,1,484.21,368.65Z" transform="translate(-142.33 -277.25)"/><path class="cls-1" d="M494.06,364.76q0-6.7,5.46-6.7a6.65,6.65,0,0,1,1.45.13v1.53a5.08,5.08,0,0,0-1.37-.17,3.58,3.58,0,0,0-2.76,1,4.76,4.76,0,0,0-1,3.15h.09a2.52,2.52,0,0,1,1-1,3.32,3.32,0,0,1,1.56-.35,3.1,3.1,0,0,1,2.42,1,3.66,3.66,0,0,1,.87,2.58,3.91,3.91,0,0,1-1,2.84,3.61,3.61,0,0,1-2.74,1.05,3.87,3.87,0,0,1-2.13-.59,3.8,3.8,0,0,1-1.39-1.72A6.78,6.78,0,0,1,494.06,364.76Zm4,3.51a1.79,1.79,0,0,0,1.46-.61,2.65,2.65,0,0,0,.51-1.74,2.32,2.32,0,0,0-.48-1.55,1.8,1.8,0,0,0-1.44-.56,2.33,2.33,0,0,0-1.09.25,1.92,1.92,0,0,0-.79.7,1.55,1.55,0,0,0-.29.9,2.92,2.92,0,0,0,.6,1.86A1.84,1.84,0,0,0,498,368.27Z" transform="translate(-142.33 -277.25)"/><path class="cls-1" d="M507.82,358.06a4.09,4.09,0,0,1,2.57.74,2.43,2.43,0,0,1,.95,2,3.15,3.15,0,0,1-2.11,2.8,5.59,5.59,0,0,1,1.91,1.41,2.88,2.88,0,0,1-.48,3.92,4.29,4.29,0,0,1-2.81.86A4.59,4.59,0,0,1,505,369a2.71,2.71,0,0,1-1-2.26,2.87,2.87,0,0,1,.54-1.71,4.54,4.54,0,0,1,1.75-1.36,4.59,4.59,0,0,1-1.49-1.32,2.79,2.79,0,0,1-.44-1.56,2.35,2.35,0,0,1,1-2A4.06,4.06,0,0,1,507.82,358.06Zm-2.12,8.61a1.51,1.51,0,0,0,.57,1.26,2.44,2.44,0,0,0,1.55.45,2.41,2.41,0,0,0,1.57-.47,1.55,1.55,0,0,0,.55-1.26,1.62,1.62,0,0,0-.51-1.15,4.76,4.76,0,0,0-1.56-1l-.23-.1a4,4,0,0,0-1.48,1A1.86,1.86,0,0,0,505.7,366.67Zm2.1-7.2a1.89,1.89,0,0,0-1.25.39,1.28,1.28,0,0,0-.48,1.05,1.6,1.6,0,0,0,.17.73,2.06,2.06,0,0,0,.5.58,6.72,6.72,0,0,0,1.11.63,3.81,3.81,0,0,0,1.33-.87,1.65,1.65,0,0,0,.38-1.07,1.28,1.28,0,0,0-.48-1.05A2,2,0,0,0,507.8,359.47Z" transform="translate(-142.33 -277.25)"/><path class="cls-1" d="M202.83,307.54a8,8,0,0,1-.69,4.76,10.31,10.31,0,0,1-2.86,3.47A15.14,15.14,0,0,1,195.1,318a23.86,23.86,0,0,1-4.63,1.18,25.69,25.69,0,0,1-4.61.22,16,16,0,0,1-4.55-.84,10.41,10.41,0,0,1-3.73-2.25,7.53,7.53,0,0,1-2.13-4,.85.85,0,0,1,.19-.72,1,1,0,0,1,.65-.37c2.41-.38,3.61-.57,6-.93a2.06,2.06,0,0,1,.48,0,1.77,1.77,0,0,1,.4.08,4.32,4.32,0,0,1,.87.51,3.84,3.84,0,0,0,2.43,1.62,8.79,8.79,0,0,0,3,.08c.45-.07,1-.17,1.54-.31a6.66,6.66,0,0,0,1.57-.61,3.63,3.63,0,0,0,1.17-1,2,2,0,0,0,.34-1.52A1.87,1.87,0,0,0,193,307.5a9.35,9.35,0,0,0-2-.58,18.76,18.76,0,0,0-1.91-.25c-.73-.07-1.59-.12-2.55-.16a31.78,31.78,0,0,1-4.19-.45,13.21,13.21,0,0,1-3.74-1.18,8.28,8.28,0,0,1-2.88-2.31,8.75,8.75,0,0,1-.68-9.14,10.6,10.6,0,0,1,3.91-3.9,18.36,18.36,0,0,1,6.63-2.16,20.78,20.78,0,0,1,3.21-.21,16.51,16.51,0,0,1,3.3.36,12.8,12.8,0,0,1,3.1,1.08,9.72,9.72,0,0,1,2.6,1.9,7.12,7.12,0,0,1,2.22,3.75,1,1,0,0,1-.21.71,1,1,0,0,1-.62.4c-2.57.33-3.86.51-6.43.86a1.68,1.68,0,0,1-1.62-.59,3.63,3.63,0,0,0-1.65-1.41,6.06,6.06,0,0,0-2.94-.21,10.12,10.12,0,0,0-1.39.29,3.9,3.9,0,0,0-1.25.59,2.8,2.8,0,0,0-.85,1,2.22,2.22,0,0,0-.17,1.36,2.27,2.27,0,0,0,1.67,1.8,21.76,21.76,0,0,0,5.34.74c1.45.07,2.93.18,4.4.36a13.76,13.76,0,0,1,4,1.07,8.36,8.36,0,0,1,3,2.31A7.81,7.81,0,0,1,202.83,307.54Z" transform="translate(-142.33 -277.25)"/><path class="cls-1" d="M223.78,315.11q-6.39.69-10.43-1.94t-5-8.59q-.19-1.24-.51-3.84c-.22-1.72-.36-3-.44-3.89-.35-3.93.61-7.14,2.93-9.58s5.66-3.9,10-4.37,7.87.26,10.65,2.14,4.41,4.81,4.91,8.73c.22,1.72.38,3,.46,3.89s.17,2.18.27,3.86c.22,4-.81,7.17-3.06,9.47S228,314.65,223.78,315.11Zm-.73-6.71a5.12,5.12,0,0,0,3.61-1.81,6.21,6.21,0,0,0,1.05-4.47c-.12-1.74-.21-3-.29-3.73s-.23-1.95-.46-3.61a6.17,6.17,0,0,0-2-4.17,5.21,5.21,0,0,0-4-1,5.3,5.3,0,0,0-3.72,1.84,6.15,6.15,0,0,0-1,4.48c.07.84.19,2.05.37,3.63s.34,2.85.47,3.71a6.23,6.23,0,0,0,2,4.14A5.17,5.17,0,0,0,223.05,308.4Z" transform="translate(-142.33 -277.25)"/><path class="cls-1" d="M266.2,279.46a1.19,1.19,0,0,1,.88.28,1.07,1.07,0,0,1,.4.77l.3,5a1.06,1.06,0,0,1-.29.83,1.3,1.3,0,0,1-.84.37c-4.29.26-6.44.4-10.72.71a2.67,2.67,0,0,1,1.87.59,2.13,2.13,0,0,1,.92,1.56c.58,8.22.86,12.34,1.44,20.56a1,1,0,0,1-.31.79,1.25,1.25,0,0,1-.79.37c-2.51.18-3.76.27-6.27.47a1.22,1.22,0,0,1-.83-.26.94.94,0,0,1-.42-.73l-1.7-21.53a1.26,1.26,0,0,0-.49-1,1.48,1.48,0,0,0-1-.28l-6.7.56a1.21,1.21,0,0,1-.85-.24,1,1,0,0,1-.44-.77l-.21-2.29a3.56,3.56,0,0,1,.21-1.6,3.93,3.93,0,0,1,.82-1.31,4.18,4.18,0,0,1,2.68-1.29C252.79,280.33,257.26,280,266.2,279.46Z" transform="translate(-142.33 -277.25)"/><path class="cls-1" d="M288.18,310.33c-4.27.17-7.68-.7-10.26-2.64s-4.06-4.91-4.44-8.91c-.07-.84-.16-2.13-.25-3.86s-.16-3.05-.17-3.92c-.09-3.95,1.08-7.08,3.56-9.35s5.9-3.52,10.25-3.7,7.82.79,10.48,2.86,4.07,5.09,4.3,9c.11,1.73.17,3,.2,3.91s0,2.19,0,3.87c0,4-1.28,7.1-3.67,9.24S292.45,310.16,288.18,310.33Zm-.27-6.75a5.09,5.09,0,0,0,3.72-1.56,6.24,6.24,0,0,0,1.35-4.39c0-1.74,0-3,0-3.74s-.1-2-.22-3.64A6.15,6.15,0,0,0,291,286a5.18,5.18,0,0,0-3.89-1.27,5.26,5.26,0,0,0-3.83,1.58,6.17,6.17,0,0,0-1.33,4.41c0,.84.05,2.05.12,3.64s.15,2.86.22,3.73a6.29,6.29,0,0,0,1.7,4.27A5.17,5.17,0,0,0,287.91,303.58Z" transform="translate(-142.33 -277.25)"/><path class="cls-1" d="M347.2,299.76a8,8,0,0,1-1.39,4.61,10.34,10.34,0,0,1-3.34,3A15,15,0,0,1,338,309a23.82,23.82,0,0,1-4.75.47,24.64,24.64,0,0,1-4.58-.47,15.39,15.39,0,0,1-4.36-1.5,10.29,10.29,0,0,1-3.35-2.78,7.53,7.53,0,0,1-1.5-4.28.84.84,0,0,1,.29-.68,1,1,0,0,1,.7-.28l6.07,0a2.28,2.28,0,0,1,.48.05,1.79,1.79,0,0,1,.39.13,4,4,0,0,1,.77.63,3.86,3.86,0,0,0,2.16,2,9,9,0,0,0,3,.53c.46,0,1,0,1.57-.08a6.45,6.45,0,0,0,1.64-.37,3.6,3.6,0,0,0,1.31-.84,2,2,0,0,0,.56-1.46,1.87,1.87,0,0,0-.89-1.76,10.27,10.27,0,0,0-1.91-.88c-.51-.17-1.13-.36-1.85-.53s-1.55-.34-2.49-.53a31.55,31.55,0,0,1-4.07-1.07,13.66,13.66,0,0,1-3.51-1.72,8.53,8.53,0,0,1-2.5-2.71,8.76,8.76,0,0,1,.69-9.14,10.52,10.52,0,0,1,4.43-3.28,18,18,0,0,1,6.86-1.15,22.53,22.53,0,0,1,3.2.27,16.87,16.87,0,0,1,3.21.85,13.2,13.2,0,0,1,2.88,1.52,9.5,9.5,0,0,1,2.29,2.27,7.17,7.17,0,0,1,1.64,4,1,1,0,0,1-1,1c-2.59-.05-3.88-.07-6.47-.1a1.69,1.69,0,0,1-1.51-.83,3.5,3.5,0,0,0-1.42-1.63,5.93,5.93,0,0,0-2.87-.65,9.68,9.68,0,0,0-1.41.08,3.83,3.83,0,0,0-1.32.4,2.65,2.65,0,0,0-1,.83,2.17,2.17,0,0,0-.37,1.32,2.27,2.27,0,0,0,1.38,2,21.22,21.22,0,0,0,5.15,1.52c1.43.29,2.87.62,4.29,1a13.64,13.64,0,0,1,3.77,1.66,8.47,8.47,0,0,1,2.64,2.72A7.9,7.9,0,0,1,347.2,299.76Z" transform="translate(-142.33 -277.25)"/><path class="cls-1" d="M353.76,308.25c.29-10.53.44-15.79.73-26.32a3.63,3.63,0,0,1,1.29-2.77,4.11,4.11,0,0,1,2.88-1c7.61.24,11.41.4,19,.79a1.19,1.19,0,0,1,.85.38,1.1,1.1,0,0,1,.3.85c-.09,1.78-.14,2.67-.23,4.45a1,1,0,0,1-.36.75,1.31,1.31,0,0,1-.9.27c-6.83-.35-10.24-.5-17.08-.73a2.54,2.54,0,0,1,2.46,2.52l-.07,1.89a1.55,1.55,0,0,0,.31,1,1.23,1.23,0,0,0,1,.48c4,.15,6,.24,10,.43a1.22,1.22,0,0,1,.84.38,1.1,1.1,0,0,1,.3.85l-.2,4a1.08,1.08,0,0,1-.38.81,1.21,1.21,0,0,1-.86.3c-5.54-.27-8.31-.38-13.86-.57a2.42,2.42,0,0,1,1.76.78,2.24,2.24,0,0,1,.67,1.65l-.07,2.11a1.41,1.41,0,0,0,.33,1,1.18,1.18,0,0,0,1,.48c5.31.2,8,.32,13.27.6a1,1,0,0,1,1.12,1.23c-.09,1.76-.14,2.64-.23,4.4a1,1,0,0,1-.39.81,1.18,1.18,0,0,1-.85.25c-8.62-.44-12.94-.61-21.57-.87a1,1,0,0,1-.78-.36A1.06,1.06,0,0,1,353.76,308.25Z" transform="translate(-142.33 -277.25)"/><path class="cls-1" d="M384.43,299.09c0-.44.05-1,.08-1.69s.06-1.47.11-2.4.12-1.78.17-2.45.09-1.24.12-1.68a12.24,12.24,0,0,1,1.62-5.27,10.32,10.32,0,0,1,3.33-3.49,12.91,12.91,0,0,1,4.7-1.81,22.15,22.15,0,0,1,5.63-.28,26.26,26.26,0,0,1,3.52.52,18.28,18.28,0,0,1,3.45,1.11,14.94,14.94,0,0,1,3,1.78,9.83,9.83,0,0,1,2.35,2.55,7.14,7.14,0,0,1,1.41,4.6.86.86,0,0,1-.33.65,1.13,1.13,0,0,1-.77.25c-2.83-.25-4.25-.37-7.09-.6a1.44,1.44,0,0,1-.72-.24,2.3,2.3,0,0,1-.43-.48,4.44,4.44,0,0,0-1.84-2.52,6.77,6.77,0,0,0-3.09-.93c-3.55-.26-5.52,1.4-5.92,5,0,.42-.07.95-.13,1.59s-.12,1.4-.18,2.26-.1,1.63-.13,2.27-.07,1.21-.09,1.64a6.27,6.27,0,0,0,1.21,4.35c.85,1,2.38,1.59,4.62,1.76a16.33,16.33,0,0,0,1.78,0,6.89,6.89,0,0,0,1.17-.16,3.1,3.1,0,0,0,.87-.34,5.94,5.94,0,0,0,.77-.5,4,4,0,0,0,1.5-2.09,2.71,2.71,0,0,1,.69-1.14,3.83,3.83,0,0,1,.95-.69,3.68,3.68,0,0,1,1-.35,2.91,2.91,0,0,1,.79-.07c-3.23-.27-4.85-.4-8.08-.65a1.14,1.14,0,0,1-.8-.42,1.11,1.11,0,0,1-.3-.83l.06-.77a3.71,3.71,0,0,1,.38-1.39,3.93,3.93,0,0,1,.87-1.2,3.85,3.85,0,0,1,1.31-.8,4,4,0,0,1,1.72-.2c2.72.21,4.08.32,6.79.55a3.11,3.11,0,0,1,2.38,1.09,3.45,3.45,0,0,1,.55,2.42l-.28,3.14a12.18,12.18,0,0,1-1.64,5.37,10.86,10.86,0,0,1-3.45,3.49,13.57,13.57,0,0,1-4.73,1.83,20.65,20.65,0,0,1-5.53.29,20.34,20.34,0,0,1-5.45-1.1,13,13,0,0,1-4.26-2.49,10.65,10.65,0,0,1-2.75-4A13.14,13.14,0,0,1,384.43,299.09Z" transform="translate(-142.33 -277.25)"/><path class="cls-1" d="M419.63,312.34c1-10.48,1.52-15.72,2.53-26.2a3.62,3.62,0,0,1,1.48-2.68,4.15,4.15,0,0,1,2.94-.82c7.58.77,11.37,1.19,18.94,2.1a1.21,1.21,0,0,1,.8.46,1.1,1.1,0,0,1,.27.85c-.22,1.77-.32,2.65-.54,4.42a1,1,0,0,1-.46.71,1.25,1.25,0,0,1-.87.22c-6.82-.82-10.23-1.2-17.06-1.91a2.46,2.46,0,0,1,1.75.95,2.43,2.43,0,0,1,.54,1.73l-.2,1.88a1.4,1.4,0,0,0,.27,1,1.28,1.28,0,0,0,1,.56c4,.43,6,.65,10,1.12A1,1,0,0,1,442,298l-.48,4a1,1,0,0,1-1.32,1c-5.52-.64-8.28-.95-13.8-1.51a2.43,2.43,0,0,1,1.7.9,2.24,2.24,0,0,1,.56,1.68l-.22,2.11a1.43,1.43,0,0,0,.28,1,1.29,1.29,0,0,0,1,.55c5.29.57,7.94.87,13.22,1.51a1.15,1.15,0,0,1,1,1.3c-.22,1.75-.33,2.63-.54,4.38a1,1,0,0,1-.46.76,1.16,1.16,0,0,1-.84.21c-8.59-1-12.89-1.5-21.49-2.35a1.06,1.06,0,0,1-.78-.39A1.11,1.11,0,0,1,419.63,312.34Z" transform="translate(-142.33 -277.25)"/><path class="cls-1" d="M476.35,320.68c-2.53-.4-3.79-.59-6.31-1a1.86,1.86,0,0,1-1.62-1.43c-1.3-3.83-2-5.75-3.3-9.58a1.32,1.32,0,0,0-1.12-.88c-2.38-.34-3.56-.51-5.94-.83a2.2,2.2,0,0,1,1.68,1,2.49,2.49,0,0,1,.44,1.68c-.41,2.94-.61,4.41-1,7.35a1,1,0,0,1-.42.72,1.21,1.21,0,0,1-.85.2c-2.46-.34-3.69-.51-6.14-.83a1.09,1.09,0,0,1-.75-.44,1.07,1.07,0,0,1-.24-.78l3.4-26.15a3.54,3.54,0,0,1,1.56-2.58,4,4,0,0,1,3-.72c3.93.52,5.9.8,9.82,1.36a21.84,21.84,0,0,1,4.85,1.26,12.11,12.11,0,0,1,3.85,2.36,8.82,8.82,0,0,1,2.34,3.57,9.82,9.82,0,0,1,.31,4.9,9.21,9.21,0,0,1-6.15,7.52.7.7,0,0,0-.43,1c1.66,4.4,2.49,6.61,4.1,11a1.18,1.18,0,0,1,.06.51.81.81,0,0,1-.39.57A.92.92,0,0,1,476.35,320.68ZM471,298.52a3.48,3.48,0,0,0-.72-2.95,4.39,4.39,0,0,0-2.77-1.39l-7.91-1.1a2.5,2.5,0,0,1,2.2,2.71l-.5,3.61a1.37,1.37,0,0,0,1.18,1.53l4,.56a4.67,4.67,0,0,0,3-.45A3.24,3.24,0,0,0,471,298.52Z" transform="translate(-142.33 -277.25)"/></svg>